<?xml version="1.0"?><svg width="640" height="480" xmlns="http://www.w3.org/2000/svg">
 <metadata id="metadata2877">image/svg+xml</metadata>
 <g>
  <title>Layer 1</title>
  <g id="layer1">
   <g id="g2245">
    <path fill="#7f7f7f" fill-rule="evenodd" stroke="#000000" stroke-width="0.7639128px" d="m252.621826,73.114265l-8.440338,-52.601624l-39.292404,1.927244l-31.439255,28.663172l-28.898056,-41.785548l-53.589226,10.533093l-7.666306,27.088236l-63.182806,-1.671032l-5.621616,71.553802l-3.715706,18.717285l39.644724,13.592163l39.810234,-24.712532l11.755653,61.842796l14.766701,12.086685l59.867485,-7.570145l18.130051,-22.150024l48.133148,22.715927l37.717514,-25.70018l-4.890198,-33.014145l28.828644,-6.865486l11.734344,-30.286072l-35.811615,-27.136299l-27.840973,4.772682z" id="path2227"/>
    <path fill="#7f7f7f" stroke-width="1px" id="text2219" d="m43.860195,156.999771c-16.281466,-0.983185 -43.468146,-13.975052 -43.86017,-34.430168c9.256832,-22.768929 1.23944,-26.596741 0.465537,-44.106735c0.640447,-29.656143 29.601565,-53.935371 58.955935,-49.875006c12.219822,5.285692 21.592701,3.161894 25.93462,-10.273758c9.896614,-15.765639 29.769279,-21.454401 47.233162,-16.670309c19.195084,0.789024 33.477982,13.98048 45.802933,27.24262c9.459839,-5.43502 21.05809,-17.712401 34.538345,-19.797048c20.651306,-6.655356 42.818008,8.410987 46.789169,29.219192c3.031464,12.715984 0.53067,28.112049 18.095093,23.616158c23.241119,0.794937 41.271454,23.364452 44.473816,45.151478c1.465851,16.094894 -13.166809,32.347969 -29.877014,28.708061c1.379852,17.950485 -2.196716,44.705521 -24.313599,53.52417c-20.781433,12.594467 -48.383301,11.255203 -68.09758,-2.793823c-7.310806,16.630676 -25.691132,21.263306 -42.208206,22.460663c-24.186493,4.659714 -56.083527,-0.413422 -66.124641,-26.120148c-6.569466,-8.455872 -3.807701,-34.204117 -14.096924,-33.393845c-9.036308,7.450302 -22.482067,8.470459 -33.710476,7.538498zm1.371906,-18.284256c16.031738,1.27478 34.105682,-10.412018 39.320168,-25.400314c9.822899,-18.103279 32.884964,2.945992 19.34581,16.944244c-2.444122,17.096664 -6.417152,38.140305 3.401459,53.277893c14.346512,11.691101 34.894814,8.233093 52.093758,7.872009c19.549835,0.460266 22.166473,-19.125137 26.452438,-32.399719c15.480026,-3.992905 24.06929,23.058624 43.00914,19.548157c20.777222,3.125534 47.215561,-10.86853 45.991531,-34.261398c-3.231689,-10.564758 -26.473419,-30.741562 -1.806274,-30.980385c16.001434,8.803169 41.484222,-1.748413 27.602264,-22.258354c-11.398438,-18.361809 -35.184174,-10.737106 -51.488632,-4.933983c-25.138901,-6.557976 2.020569,-31.032673 -5.079407,-47.76899c-2.994202,-17.121161 -25.902618,-15.552752 -36.499725,-6.660463c-17.276108,3.237722 -18.124405,45.859118 -37.29097,26.574831c-4.48526,-16.174492 -13.265472,-34.000193 -31.401398,-37.562241c-18.768166,-7.336069 -44.568344,4.085531 -42.754341,26.545269c-4.456207,19.314518 -29.304459,-5.531273 -42.880508,1.132603c-17.056263,0.23336 -36.14912,14.498863 -34.579346,32.77227c9.066339,11.513779 16.745129,23.955368 4.230206,36.990456c-7.404472,16.619492 8.767767,22.086731 22.333828,20.568115"/>
   </g>
  </g>
  <g transform="rotate(-39.65347671508789 198.87724304199224,125.24734497070311) " id="svg_6">
   <g id="svg_7">
    <path id="svg_8" fill="#7f7f7f" fill-rule="evenodd" stroke="#000000" stroke-width="0.7639128px" d="m289.621826,93.114273l-8.440338,-52.601635l-39.292404,1.92725l-31.439255,28.66317l-28.898056,-41.785549l-53.589226,10.533092l-7.666306,27.088242l-63.1828,-1.671028l-5.62162,71.553795l-3.715714,18.717285l39.644737,13.592163l39.810226,-24.712524l11.755638,61.842789l14.766724,12.086685l59.867477,-7.570145l18.130051,-22.150024l48.133163,22.715927l37.717499,-25.70018l-4.890198,-33.014145l28.828644,-6.865494l11.734344,-30.286064l-35.811615,-27.136299l-27.840973,4.77269z"/>
    <path id="svg_9" fill="#7f7f7f" stroke-width="1px" d="m80.860199,176.999771c-16.281471,-0.983185 -43.468147,-13.975052 -43.86018,-34.430161c9.25684,-22.768944 1.239441,-26.596748 0.465542,-44.106743c0.64045,-29.656143 29.60157,-53.935368 58.95594,-49.875008c12.219818,5.28569 21.592697,3.1619 25.934616,-10.273758c9.896614,-15.765642 29.769279,-21.454403 47.233162,-16.670301c19.195084,0.789019 33.477982,13.980478 45.802933,27.24262c9.459839,-5.43502 21.05809,-17.712412 34.538345,-19.79705c20.651291,-6.655361 42.818008,8.41098 46.789169,29.219189c3.031464,12.715977 0.53067,28.112049 18.095093,23.616161c23.241119,0.79493 41.271454,23.364449 44.473816,45.151466c1.465851,16.09491 -13.166809,32.347977 -29.877014,28.708069c1.379852,17.950485 -2.196716,44.705521 -24.313599,53.52417c-20.781433,12.594467 -48.383301,11.255203 -68.09758,-2.793823c-7.310806,16.630676 -25.691132,21.263306 -42.208206,22.460663c-24.186493,4.659714 -56.083527,-0.413422 -66.124649,-26.120148c-6.569458,-8.455872 -3.807693,-34.204117 -14.096916,-33.393845c-9.036308,7.450302 -22.482071,8.470459 -33.710472,7.538498zm1.371902,-18.284256c16.031738,1.27478 34.105682,-10.412018 39.320168,-25.400314c9.822899,-18.103279 32.884956,2.945999 19.345802,16.944244c-2.444122,17.096664 -6.417145,38.140305 3.401474,53.277893c14.346512,11.691101 34.894806,8.233093 52.09375,7.872009c19.549835,0.460266 22.166473,-19.125137 26.452438,-32.399719c15.480026,-3.992905 24.06929,23.058624 43.009125,19.548157c20.777252,3.125534 47.215576,-10.86853 45.991547,-34.261398c-3.231689,-10.564758 -26.473419,-30.741562 -1.806274,-30.980377c16.001434,8.803162 41.484222,-1.748413 27.602264,-22.258362c-11.398438,-18.361809 -35.184174,-10.737106 -51.488617,-4.93399c-25.138916,-6.557968 2.020538,-31.032669 -5.079437,-47.768978c-2.994171,-17.12117 -25.902603,-15.552761 -36.49971,-6.660469c-17.276108,3.23772 -18.124405,45.859119 -37.29097,26.574833c-4.48526,-16.174492 -13.265472,-34.000191 -31.401398,-37.562241c-18.768158,-7.336071 -44.568344,4.085526 -42.754333,26.545273c-4.456223,19.314514 -29.304466,-5.531277 -42.880516,1.132599c-17.056267,0.233353 -36.149124,14.498871 -34.579342,32.772263c9.066341,11.513786 16.745129,23.955376 4.230198,36.990463c-7.404469,16.619492 8.767769,22.086731 22.333832,20.568115"/>
   </g>
  </g>
 </g>
</svg>